<?xml version="1.0" standalone="no"?>
<!DOCTYPE svg PUBLIC "-//W3C//DTD SVG 20010904//EN"
 "http://www.w3.org/TR/2001/REC-SVG-20010904/DTD/svg10.dtd">
<svg version="1.0" xmlns="http://www.w3.org/2000/svg"
 width="964.000000pt" height="1280.000000pt" viewBox="0 0 964.000000 1280.000000"
 preserveAspectRatio="xMidYMid meet">
<metadata>
Created by potrace 1.15, written by Peter Selinger 2001-2017
</metadata>
<g transform="translate(0.000000,1280.000000) scale(0.100000,-0.100000)"
fill="#000000" stroke="none">
<path d="M2815 12781 c-5 -16 5 -213 22 -424 l6 -78 -31 30 c-37 37 -46 38
-77 6 -27 -26 -33 -73 -15 -120 10 -26 9 -27 -15 -21 -65 16 -83 -29 -87 -216
l-2 -128 68 -132 c75 -143 88 -188 80 -258 -6 -44 -7 -45 -72 -75 -36 -17 -79
-37 -95 -45 l-30 -15 2 -160 c1 -88 6 -198 12 -243 9 -69 8 -103 -5 -192 -15
-92 -15 -123 -5 -216 7 -66 9 -168 6 -259 -4 -82 -3 -180 1 -216 6 -47 3 -102
-10 -185 -29 -196 -27 -282 9 -394 17 -52 34 -124 38 -160 13 -133 25 -183
216 -910 51 -195 203 -686 225 -729 14 -26 29 -76 34 -112 6 -35 16 -86 25
-112 8 -26 19 -116 26 -200 11 -151 10 -234 -12 -707 l-11 -235 -45 -69 c-24
-37 -76 -128 -114 -201 -61 -117 -77 -140 -139 -194 -56 -50 -79 -80 -116
-153 -141 -272 -317 -425 -764 -663 -208 -111 -284 -161 -349 -230 -93 -98
-116 -191 -63 -245 40 -39 88 -50 232 -50 136 0 427 24 475 39 17 5 103 36
192 70 220 83 300 102 461 108 l134 6 -26 -42 c-15 -22 -37 -65 -50 -95 -13
-29 -57 -91 -98 -137 -41 -46 -105 -127 -142 -179 -38 -52 -114 -152 -170
-223 -55 -71 -110 -141 -121 -156 -186 -248 -354 -457 -378 -470 -187 -102
-313 -198 -487 -371 -149 -150 -289 -315 -461 -545 l-127 -171 -113 -58 -114
-58 -215 -218 c-203 -205 -218 -218 -277 -239 -34 -12 -69 -32 -78 -44 -51
-73 25 -228 169 -345 l64 -52 -42 -64 c-33 -48 -44 -76 -50 -119 -8 -74 -39
-155 -116 -302 -136 -258 -150 -290 -160 -350 -5 -33 -14 -81 -21 -106 -16
-64 -8 -89 58 -159 72 -78 122 -107 218 -125 122 -24 175 -20 222 14 40 29 80
75 102 118 22 43 53 230 58 351 6 120 6 122 30 122 31 0 91 38 131 84 23 27
32 47 32 74 1 108 8 231 15 265 l7 37 62 0 c57 0 66 3 104 36 23 19 103 103
178 187 176 197 204 222 295 268 46 23 160 103 285 201 237 185 475 355 580
416 143 83 365 262 616 499 437 411 631 601 690 675 36 46 74 90 84 100 11 9
91 60 179 113 88 53 196 123 240 154 128 93 164 106 241 92 27 -5 104 -17 170
-25 205 -27 219 -33 501 -214 188 -121 337 -206 405 -232 49 -18 178 -93 447
-258 46 -28 109 -61 140 -72 160 -59 193 -74 268 -123 45 -28 121 -74 169
-102 48 -27 120 -80 160 -116 50 -45 109 -85 195 -130 136 -71 210 -135 269
-233 84 -140 356 -543 452 -671 58 -77 154 -194 213 -260 161 -179 189 -221
209 -305 59 -243 180 -398 326 -417 l40 -6 0 -51 c0 -28 5 -78 11 -111 6 -33
10 -77 9 -99 0 -21 4 -62 10 -91 13 -61 27 -73 126 -111 68 -25 119 -30 170
-15 26 7 40 4 81 -19 61 -35 74 -50 93 -109 14 -39 23 -50 65 -71 46 -23 60
-25 180 -24 148 1 245 21 399 83 l91 36 3 42 c3 35 -1 44 -21 58 -22 14 -23
19 -14 53 8 30 7 45 -7 74 -16 32 -34 45 -153 104 -96 48 -153 84 -198 125
-35 31 -87 75 -117 97 -29 22 -70 57 -90 78 -38 40 -118 169 -118 191 0 6 26
27 58 47 66 40 132 106 158 156 10 21 19 66 22 112 4 63 1 83 -14 105 -9 15
-203 251 -429 523 -736 887 -770 930 -832 1054 -89 179 -91 180 -608 647 -143
129 -294 262 -336 296 -68 56 -108 101 -207 230 -19 24 -47 46 -66 53 -19 6
-42 22 -50 36 -9 13 -24 24 -32 24 -9 0 -51 33 -93 73 -42 41 -104 91 -139
112 -34 21 -61 40 -59 41 8 8 167 -39 247 -73 145 -60 166 -66 217 -58 38 5
56 15 88 49 44 45 62 91 71 182 7 67 -14 204 -46 304 -37 114 -144 321 -235
455 -103 152 -122 191 -205 425 -85 241 -99 273 -119 264 -9 -4 -25 -9 -37
-11 -41 -9 -133 119 -288 405 -54 99 -56 105 -56 180 0 101 -26 322 -52 442
-25 118 -49 183 -90 244 -28 44 -31 54 -31 130 1 58 6 93 19 121 15 30 20 72
24 175 l5 135 28 -61 29 -62 338 169 338 168 124 119 c69 67 160 143 208 174
117 76 234 170 373 300 66 60 156 134 200 163 45 29 125 86 179 126 53 41 139
101 192 133 l95 59 -15 36 c-8 19 -22 44 -32 54 -16 18 -16 20 8 36 13 9 92
66 175 127 82 61 170 119 195 128 59 23 105 59 136 106 20 29 25 51 26 99 1
42 6 69 18 84 32 41 90 172 90 203 0 33 -18 48 -45 37 -9 -3 -28 -29 -42 -57
-14 -28 -41 -70 -60 -94 -29 -36 -37 -41 -50 -30 -17 14 -13 61 17 198 30 137
31 148 14 165 -9 8 -19 15 -23 15 -18 0 -39 -41 -67 -129 -25 -81 -30 -90 -34
-65 -3 16 4 64 17 109 40 139 44 164 32 186 -12 24 -57 23 -71 -1 -4 -8 -26
-68 -49 -132 -25 -72 -45 -115 -51 -111 -7 4 -9 46 -5 124 4 65 4 125 1 133
-7 19 -47 21 -62 4 -5 -7 -22 -64 -37 -126 -22 -92 -25 -118 -16 -144 6 -17
11 -49 11 -72 l0 -41 -35 64 c-52 96 -111 150 -149 135 -21 -8 -20 -22 3 -60
11 -18 26 -56 35 -85 8 -30 34 -110 58 -178 l43 -123 -52 -47 c-72 -65 -200
-138 -216 -122 -19 19 -49 12 -157 -38 -58 -27 -125 -57 -150 -67 -64 -26
-300 -155 -476 -261 -198 -119 -192 -116 -328 -152 -145 -39 -214 -70 -258
-119 -25 -28 -52 -44 -101 -60 -174 -57 -552 -242 -617 -302 l-41 -38 -67 18
c-99 26 -195 34 -239 20 -21 -7 -52 -27 -70 -46 -18 -19 -41 -34 -51 -34 -24
0 -128 45 -137 59 -10 17 -46 13 -68 -6 -19 -18 -20 -18 -3 15 10 18 24 32 35
32 31 0 65 44 111 145 37 83 42 100 31 117 -15 24 -3 67 45 153 75 138 91 244
46 323 -13 24 -25 56 -27 72 -4 29 -22 75 -51 125 -9 17 -21 37 -25 45 -5 8
-22 42 -37 75 -21 45 -40 67 -73 89 -24 16 -64 46 -89 67 -36 29 -56 38 -103
44 -40 4 -63 3 -73 -6 -10 -8 -21 -9 -37 -2 -32 14 -127 4 -127 -13 0 -9 -18
-16 -51 -20 -33 -4 -55 -13 -62 -25 -7 -11 -17 -19 -24 -19 -7 0 -13 -7 -13
-15 0 -9 -10 -15 -26 -15 -17 0 -28 -6 -31 -20 -3 -11 -10 -20 -16 -20 -6 0
-7 -3 -4 -7 4 -3 -8 -25 -27 -47 -77 -94 -125 -198 -131 -286 -2 -25 -7 -71
-11 -103 -6 -51 -9 -57 -28 -55 -19 3 -21 -2 -22 -57 -1 -36 -10 -81 -22 -113
-35 -84 -26 -142 20 -142 20 0 19 1 22 -85 3 -66 -11 -145 -26 -145 -5 0 -25
7 -46 16 -20 9 -75 20 -121 25 -46 5 -90 14 -97 20 -8 6 -29 44 -48 83 -40 82
-111 156 -150 156 -22 0 -25 5 -31 53 -4 28 -16 93 -26 142 -11 50 -24 120
-28 156 -10 72 -71 235 -157 418 -30 63 -54 126 -54 140 0 14 -16 134 -35 266
-22 151 -39 312 -45 435 -15 294 -30 477 -46 555 -9 39 -19 115 -24 170 -5 55
-11 107 -15 116 -4 10 -22 19 -46 22 -23 3 -43 7 -45 10 -10 9 -25 193 -21
242 2 27 14 77 25 110 25 73 52 191 52 225 0 14 -7 36 -16 49 -28 40 -8 219
45 410 56 201 59 281 9 297 -32 10 -53 -23 -68 -103 -7 -37 -25 -97 -40 -134
-15 -36 -35 -90 -44 -121 -17 -60 -40 -88 -57 -71 -6 6 -15 64 -20 129 -4 66
-13 148 -18 184 -6 36 -13 82 -16 103 -10 63 -75 105 -90 58z"/>
</g>
</svg>
